<svg width="18" height="17" viewBox="0 0 18 17" fill="none" xmlns="http://www.w3.org/2000/svg">
<path d="M2.90864 17H15.0825C17.001 17 18 15.9813 18 14.0348V2.96522C18 1.01873 17.001 0 15.0825 0H2.90864C0.999018 0 0 1.00963 0 2.96522V14.0348C0 15.9813 0.999018 17 2.90864 17ZM2.8998 15.1899C2.16601 15.1899 1.75933 14.7988 1.75933 13.9984V5.63028C1.75933 4.82986 2.16601 4.43874 2.8998 4.43874H15.0914C15.8251 4.43874 16.2318 4.82986 16.2318 5.63028V13.9984C16.2318 14.7988 15.8251 15.1899 15.0914 15.1899H2.8998ZM7.29371 7.57678H7.81532C8.1336 7.57678 8.23969 7.47673 8.23969 7.15837V6.62172C8.23969 6.29427 8.1336 6.19422 7.81532 6.19422H7.29371C6.97544 6.19422 6.86935 6.29427 6.86935 6.62172V7.15837C6.86935 7.47673 6.97544 7.57678 7.29371 7.57678ZM10.1847 7.57678H10.7063C11.0157 7.57678 11.1218 7.47673 11.1218 7.15837V6.62172C11.1218 6.29427 11.0157 6.19422 10.7063 6.19422H10.1847C9.86641 6.19422 9.76031 6.29427 9.76031 6.62172V7.15837C9.76031 7.47673 9.86641 7.57678 10.1847 7.57678ZM13.0668 7.57678H13.5884C13.9067 7.57678 14.0128 7.47673 14.0128 7.15837V6.62172C14.0128 6.29427 13.9067 6.19422 13.5884 6.19422H13.0668C12.7574 6.19422 12.6513 6.29427 12.6513 6.62172V7.15837C12.6513 7.47673 12.7574 7.57678 13.0668 7.57678ZM4.41159 10.5056H4.92436C5.24263 10.5056 5.34872 10.4056 5.34872 10.0781V9.54147C5.34872 9.22311 5.24263 9.12306 4.92436 9.12306H4.41159C4.09332 9.12306 3.98723 9.22311 3.98723 9.54147V10.0781C3.98723 10.4056 4.09332 10.5056 4.41159 10.5056ZM7.29371 10.5056H7.81532C8.1336 10.5056 8.23969 10.4056 8.23969 10.0781V9.54147C8.23969 9.22311 8.1336 9.12306 7.81532 9.12306H7.29371C6.97544 9.12306 6.86935 9.22311 6.86935 9.54147V10.0781C6.86935 10.4056 6.97544 10.5056 7.29371 10.5056ZM10.1847 10.5056H10.7063C11.0157 10.5056 11.1218 10.4056 11.1218 10.0781V9.54147C11.1218 9.22311 11.0157 9.12306 10.7063 9.12306H10.1847C9.86641 9.12306 9.76031 9.22311 9.76031 9.54147V10.0781C9.76031 10.4056 9.86641 10.5056 10.1847 10.5056ZM13.0668 10.5056H13.5884C13.9067 10.5056 14.0128 10.4056 14.0128 10.0781V9.54147C14.0128 9.22311 13.9067 9.12306 13.5884 9.12306H13.0668C12.7574 9.12306 12.6513 9.22311 12.6513 9.54147V10.0781C12.6513 10.4056 12.7574 10.5056 13.0668 10.5056ZM4.41159 13.4254H4.92436C5.24263 13.4254 5.34872 13.3253 5.34872 13.007V12.4703C5.34872 12.1429 5.24263 12.0428 4.92436 12.0428H4.41159C4.09332 12.0428 3.98723 12.1429 3.98723 12.4703V13.007C3.98723 13.3253 4.09332 13.4254 4.41159 13.4254ZM7.29371 13.4254H7.81532C8.1336 13.4254 8.23969 13.3253 8.23969 13.007V12.4703C8.23969 12.1429 8.1336 12.0428 7.81532 12.0428H7.29371C6.97544 12.0428 6.86935 12.1429 6.86935 12.4703V13.007C6.86935 13.3253 6.97544 13.4254 7.29371 13.4254ZM10.1847 13.4254H10.7063C11.0157 13.4254 11.1218 13.3253 11.1218 13.007V12.4703C11.1218 12.1429 11.0157 12.0428 10.7063 12.0428H10.1847C9.86641 12.0428 9.76031 12.1429 9.76031 12.4703V13.007C9.76031 13.3253 9.86641 13.4254 10.1847 13.4254Z" fill="#989898"/>
</svg>
