<svg width="10" height="6" viewBox="0 0 10 6" fill="none" xmlns="http://www.w3.org/2000/svg">
<path d="M4.65726 5.52308C4.69549 5.5675 4.74663 5.60381 4.8063 5.6289C4.86596 5.65399 4.93236 5.66709 4.99976 5.66709C5.06716 5.66709 5.13356 5.65399 5.19322 5.6289C5.25289 5.60381 5.30403 5.5675 5.34226 5.52308L9.09226 1.18975C9.13567 1.13977 9.16112 1.08123 9.16586 1.02048C9.17059 0.959741 9.15443 0.899123 9.11913 0.845213C9.08383 0.791303 9.03073 0.746164 8.96561 0.714701C8.90049 0.683237 8.82583 0.666653 8.74976 0.666748H1.24976C1.17386 0.666999 1.09948 0.683797 1.03463 0.715336C0.96977 0.746875 0.916886 0.791961 0.881664 0.845746C0.846441 0.899531 0.830212 0.95998 0.834722 1.02059C0.839232 1.0812 0.86431 1.13969 0.90726 1.18975L4.65726 5.52308Z" fill="#9199AB"/>
</svg>
